<?xml version="1.0" encoding="utf-8"?>
<!-- Generator: Adobe Illustrator 16.0.0, SVG Export Plug-In . SVG Version: 6.00 Build 0)  -->
<!DOCTYPE svg PUBLIC "-//W3C//DTD SVG 1.1//EN" "http://www.w3.org/Graphics/SVG/1.1/DTD/svg11.dtd">
<svg version="1.1" id="Layer_2" xmlns="http://www.w3.org/2000/svg" xmlns:xlink="http://www.w3.org/1999/xlink" x="0px" y="0px"
	 width="249.3px" height="100.4px" viewBox="0 0 249.3 100.4" style="enable-background:new 0 0 249.3 100.4;" xml:space="preserve"
	>
<style type="text/css">
<![CDATA[
	.st0{fill:#fff;}
]]>
</style>
<g>
	<path class="st0" d="M33.3,75.7V18.6h12.4v7.3C49.6,20,55.6,17,63.6,17c6.7,0,12.2,2.5,16.6,7.4c4.1,4.7,6.2,10.4,6.2,17.2v35H74
		V44.4c0-9.9-4.6-14.9-13.9-14.9c-4.4,0-7.9,1.3-10.5,4s-3.9,6.2-3.9,10.7v30.5L33.3,75.7z"/>
	<path class="st0" d="M92.3,96.7V42.4h-8.2V30.6h8.2v-9.8c0-6.5,2-11.6,5.9-15.4c4-3.8,9.2-5.6,15.7-5.6c3.8,0,7,0.5,9.6,1.6
		l-5.2,11.3c-1.7-0.7-3.5-1.1-5.6-1.1c-2.4,0-4.4,0.8-5.9,2.5c-1.5,1.6-2.2,3.7-2.2,6.1v10.6h12.6v11.8h-12.6c0,0,0,35.2,0,44.4
		S92.3,96.7,92.3,96.7z"/>
	<path class="st0" d="M109.3,47.6c0-9,3.1-16.3,9.2-22c6.2-5.7,13.8-8.6,22.8-8.6c9,0,16.6,2.9,22.8,8.6c6.2,5.7,9.2,13.1,9.2,22
		c0,8.9-3.1,16.2-9.3,22c-6.2,5.8-13.8,8.6-22.7,8.6c-9,0-16.5-2.9-22.7-8.6C112.4,63.8,109.3,56.5,109.3,47.6z M122.5,47.6
		c0,5.4,1.8,9.8,5.4,13.4c3.6,3.6,8.1,5.4,13.4,5.4c5.4,0,9.8-1.8,13.4-5.4c3.6-3.6,5.4-8.1,5.4-13.4c0-5.4-1.8-9.8-5.4-13.4
		c-3.6-3.6-8.1-5.4-13.4-5.4c-5.4,0-9.8,1.8-13.4,5.4C124.3,37.8,122.5,42.3,122.5,47.6z"/>
	<path class="st0" d="M171.7,76.7V18.6h11.8V25c2.3-5.3,6.1-7.9,11.6-7.9c2.8,0,5.1,0.6,6.9,1.8l-4.5,12.4c-1.4-1.1-2.9-1.7-4.7-1.7
		c-2.5,0-4.6,0.8-6.2,2.5c-1.7,1.7-2.5,3.8-2.5,6.2v38.4H171.7z"/>
	<path class="st0" d="M196.3,52.2V18.6c0,0,12.4-1.9,12.4,10s0,24.1,0,24.1c0,9.2,4.6,13.8,13.8,13.8c9.7,0,14.5-5,14.5-15
		c0,0,0-12.8,0-22.9s12.4-10,12.4-10v56.3c0,8.1-3.1,14.6-9.2,19.4c-5.1,4.1-10.9,6.1-17.3,6.1c-5.5,0-10.1-0.9-13.7-2.6
		c-3.6-1.7-7.2-4.7-10.9-8.8l10.6-6.5c4.2,4.1,8.7,6.1,13.3,6.1c4.6,0,8.3-1.4,11.2-4.2c2.9-2.8,4.3-6.5,4.3-11v-3.1h-0.2
		c-4.7,5.3-10.6,7.9-17.5,7.9c-7.2,0-13-2.6-17.3-7.8C198.4,65.6,196.3,59.5,196.3,52.2z"/>
</g>
<g>
	<path class="st0" d="M43,74.9c0,0-10.6,0.9-17.5,0.9c-7.2,0-13-2.6-17.3-7.8C4.1,63.2,2,57.1,2,49.8V17.2h12.4v33.1
		c0,9.2,4.6,13.8,13.8,13.8c9.7,0,14.5-5,14.5-15"/>
	<path class="st0" d="M0,6.4C0,0,0,0,0,0h6c0,0,6.5,0.4,6.5,6.4s0,6,0,6H6C6,12.4,0,12.8,0,6.4z"/>
</g>
</svg>
